<mxfile host="app.diagrams.net" agent="Mozilla/5.0 (Windows NT 10.0; Win64; x64) AppleWebKit/537.36 (KHTML, like Gecko) Chrome/129.0.0.0 Safari/537.36" version="24.7.6">
  <diagram id="pa_ujLRfAeGE49qHzYsj" name="Page-1">
    <mxGraphModel dx="1434" dy="738" grid="1" gridSize="10" guides="1" tooltips="1" connect="1" arrows="1" fold="1" page="1" pageScale="1" pageWidth="827" pageHeight="1169" math="0" shadow="0">
      <root>
        <mxCell id="0" />
        <mxCell id="1" parent="0" />
        <mxCell id="96vdho0zSYJRV0phg4Qu-5" value="" style="rounded=1;whiteSpace=wrap;html=1;fillColor=#f5f5f5;gradientColor=#b3b3b3;strokeColor=#666666;" parent="1" vertex="1">
          <mxGeometry x="61" y="376" width="419" height="380" as="geometry" />
        </mxCell>
        <mxCell id="dxV5G8bnFSJIvy8jJrCQ-1" value="" style="rounded=0;whiteSpace=wrap;html=1;" parent="1" vertex="1">
          <mxGeometry x="90" y="120" width="370" height="80" as="geometry" />
        </mxCell>
        <mxCell id="dxV5G8bnFSJIvy8jJrCQ-18" value="" style="rounded=0;whiteSpace=wrap;html=1;" parent="1" vertex="1">
          <mxGeometry x="350" y="170" width="20" height="20" as="geometry" />
        </mxCell>
        <mxCell id="dxV5G8bnFSJIvy8jJrCQ-19" value="" style="rounded=0;whiteSpace=wrap;html=1;" parent="1" vertex="1">
          <mxGeometry x="350" y="130" width="20" height="20" as="geometry" />
        </mxCell>
        <mxCell id="dxV5G8bnFSJIvy8jJrCQ-20" value="接硬盘录像机&lt;br&gt;的网线" style="text;html=1;align=center;verticalAlign=middle;resizable=0;points=[];autosize=1;strokeColor=none;fillColor=none;" parent="1" vertex="1">
          <mxGeometry x="380" y="125" width="90" height="30" as="geometry" />
        </mxCell>
        <mxCell id="dxV5G8bnFSJIvy8jJrCQ-21" value="接路由器&lt;br&gt;的网线" style="text;html=1;align=center;verticalAlign=middle;resizable=0;points=[];autosize=1;strokeColor=none;fillColor=none;" parent="1" vertex="1">
          <mxGeometry x="385" y="165" width="60" height="30" as="geometry" />
        </mxCell>
        <mxCell id="dxV5G8bnFSJIvy8jJrCQ-22" value="" style="endArrow=classic;html=1;rounded=0;exitX=0;exitY=0.5;exitDx=0;exitDy=0;" parent="1" source="dxV5G8bnFSJIvy8jJrCQ-18" edge="1">
          <mxGeometry width="50" height="50" relative="1" as="geometry">
            <mxPoint x="410" y="390" as="sourcePoint" />
            <mxPoint x="390" y="180" as="targetPoint" />
          </mxGeometry>
        </mxCell>
        <mxCell id="dxV5G8bnFSJIvy8jJrCQ-23" value="" style="endArrow=classic;html=1;rounded=0;exitX=0;exitY=0.5;exitDx=0;exitDy=0;" parent="1" source="dxV5G8bnFSJIvy8jJrCQ-19" edge="1">
          <mxGeometry width="50" height="50" relative="1" as="geometry">
            <mxPoint x="377.99" y="138.99" as="sourcePoint" />
            <mxPoint x="387" y="139" as="targetPoint" />
          </mxGeometry>
        </mxCell>
        <mxCell id="dxV5G8bnFSJIvy8jJrCQ-24" value="" style="rounded=1;whiteSpace=wrap;html=1;" parent="1" vertex="1">
          <mxGeometry x="100" y="125" width="180" height="70" as="geometry" />
        </mxCell>
        <mxCell id="dxV5G8bnFSJIvy8jJrCQ-25" value="1" style="rounded=0;whiteSpace=wrap;html=1;" parent="1" vertex="1">
          <mxGeometry x="115" y="130" width="20" height="20" as="geometry" />
        </mxCell>
        <mxCell id="dxV5G8bnFSJIvy8jJrCQ-26" value="2" style="rounded=0;whiteSpace=wrap;html=1;" parent="1" vertex="1">
          <mxGeometry x="115" y="170" width="20" height="20" as="geometry" />
        </mxCell>
        <mxCell id="dxV5G8bnFSJIvy8jJrCQ-27" value="4" style="rounded=0;whiteSpace=wrap;html=1;" parent="1" vertex="1">
          <mxGeometry x="165" y="170" width="20" height="20" as="geometry" />
        </mxCell>
        <mxCell id="dxV5G8bnFSJIvy8jJrCQ-28" value="6" style="rounded=0;whiteSpace=wrap;html=1;" parent="1" vertex="1">
          <mxGeometry x="205" y="170" width="20" height="20" as="geometry" />
        </mxCell>
        <mxCell id="dxV5G8bnFSJIvy8jJrCQ-29" value="8" style="rounded=0;whiteSpace=wrap;html=1;" parent="1" vertex="1">
          <mxGeometry x="245" y="170" width="20" height="20" as="geometry" />
        </mxCell>
        <mxCell id="dxV5G8bnFSJIvy8jJrCQ-30" value="5" style="rounded=0;whiteSpace=wrap;html=1;" parent="1" vertex="1">
          <mxGeometry x="205" y="130" width="20" height="20" as="geometry" />
        </mxCell>
        <mxCell id="dxV5G8bnFSJIvy8jJrCQ-31" value="7" style="rounded=0;whiteSpace=wrap;html=1;" parent="1" vertex="1">
          <mxGeometry x="245" y="130" width="20" height="20" as="geometry" />
        </mxCell>
        <mxCell id="dxV5G8bnFSJIvy8jJrCQ-32" value="3" style="rounded=0;whiteSpace=wrap;html=1;" parent="1" vertex="1">
          <mxGeometry x="165" y="130" width="20" height="20" as="geometry" />
        </mxCell>
        <mxCell id="dxV5G8bnFSJIvy8jJrCQ-33" value="" style="endArrow=classic;html=1;rounded=0;exitX=1;exitY=0.5;exitDx=0;exitDy=0;" parent="1" source="dxV5G8bnFSJIvy8jJrCQ-25" edge="1">
          <mxGeometry width="50" height="50" relative="1" as="geometry">
            <mxPoint x="90" y="270" as="sourcePoint" />
            <mxPoint x="100" y="260" as="targetPoint" />
            <Array as="points">
              <mxPoint x="100" y="140" />
            </Array>
          </mxGeometry>
        </mxCell>
        <mxCell id="dxV5G8bnFSJIvy8jJrCQ-34" value="" style="endArrow=classic;html=1;rounded=0;exitX=0.5;exitY=0;exitDx=0;exitDy=0;" parent="1" source="dxV5G8bnFSJIvy8jJrCQ-26" edge="1">
          <mxGeometry width="50" height="50" relative="1" as="geometry">
            <mxPoint x="170" y="360" as="sourcePoint" />
            <mxPoint x="125" y="270" as="targetPoint" />
          </mxGeometry>
        </mxCell>
        <mxCell id="dxV5G8bnFSJIvy8jJrCQ-35" value="" style="endArrow=classic;html=1;rounded=0;exitX=1;exitY=0.5;exitDx=0;exitDy=0;" parent="1" edge="1">
          <mxGeometry width="50" height="50" relative="1" as="geometry">
            <mxPoint x="185" y="140" as="sourcePoint" />
            <mxPoint x="150" y="260" as="targetPoint" />
            <Array as="points">
              <mxPoint x="150" y="140" />
            </Array>
          </mxGeometry>
        </mxCell>
        <mxCell id="dxV5G8bnFSJIvy8jJrCQ-36" value="" style="endArrow=classic;html=1;rounded=0;exitX=0.5;exitY=0;exitDx=0;exitDy=0;" parent="1" edge="1">
          <mxGeometry width="50" height="50" relative="1" as="geometry">
            <mxPoint x="175" y="170" as="sourcePoint" />
            <mxPoint x="175" y="270" as="targetPoint" />
          </mxGeometry>
        </mxCell>
        <mxCell id="dxV5G8bnFSJIvy8jJrCQ-37" value="" style="endArrow=classic;html=1;rounded=0;exitX=1;exitY=0.5;exitDx=0;exitDy=0;" parent="1" edge="1">
          <mxGeometry width="50" height="50" relative="1" as="geometry">
            <mxPoint x="225" y="140" as="sourcePoint" />
            <mxPoint x="190" y="260" as="targetPoint" />
            <Array as="points">
              <mxPoint x="190" y="140" />
            </Array>
          </mxGeometry>
        </mxCell>
        <mxCell id="dxV5G8bnFSJIvy8jJrCQ-38" value="" style="endArrow=classic;html=1;rounded=0;exitX=0.5;exitY=0;exitDx=0;exitDy=0;" parent="1" edge="1">
          <mxGeometry width="50" height="50" relative="1" as="geometry">
            <mxPoint x="215" y="170" as="sourcePoint" />
            <mxPoint x="215" y="270" as="targetPoint" />
          </mxGeometry>
        </mxCell>
        <mxCell id="dxV5G8bnFSJIvy8jJrCQ-40" value="" style="sketch=0;pointerEvents=1;shadow=0;dashed=0;html=1;strokeColor=none;fillColor=#505050;labelPosition=center;verticalLabelPosition=bottom;verticalAlign=top;outlineConnect=0;align=center;shape=mxgraph.office.devices.video_camera;" parent="1" vertex="1">
          <mxGeometry x="90" y="260" width="21" height="10" as="geometry" />
        </mxCell>
        <mxCell id="dxV5G8bnFSJIvy8jJrCQ-42" value="" style="sketch=0;pointerEvents=1;shadow=0;dashed=0;html=1;strokeColor=none;fillColor=#505050;labelPosition=center;verticalLabelPosition=bottom;verticalAlign=top;outlineConnect=0;align=center;shape=mxgraph.office.devices.video_camera;" parent="1" vertex="1">
          <mxGeometry x="115" y="270" width="21" height="10" as="geometry" />
        </mxCell>
        <mxCell id="dxV5G8bnFSJIvy8jJrCQ-43" value="" style="sketch=0;pointerEvents=1;shadow=0;dashed=0;html=1;strokeColor=none;fillColor=#505050;labelPosition=center;verticalLabelPosition=bottom;verticalAlign=top;outlineConnect=0;align=center;shape=mxgraph.office.devices.video_camera;" parent="1" vertex="1">
          <mxGeometry x="144" y="260" width="21" height="10" as="geometry" />
        </mxCell>
        <mxCell id="dxV5G8bnFSJIvy8jJrCQ-44" value="" style="sketch=0;pointerEvents=1;shadow=0;dashed=0;html=1;strokeColor=none;fillColor=#505050;labelPosition=center;verticalLabelPosition=bottom;verticalAlign=top;outlineConnect=0;align=center;shape=mxgraph.office.devices.video_camera;" parent="1" vertex="1">
          <mxGeometry x="165" y="270" width="21" height="10" as="geometry" />
        </mxCell>
        <mxCell id="dxV5G8bnFSJIvy8jJrCQ-45" value="" style="sketch=0;pointerEvents=1;shadow=0;dashed=0;html=1;strokeColor=none;fillColor=#505050;labelPosition=center;verticalLabelPosition=bottom;verticalAlign=top;outlineConnect=0;align=center;shape=mxgraph.office.devices.video_camera;" parent="1" vertex="1">
          <mxGeometry x="184" y="260" width="21" height="10" as="geometry" />
        </mxCell>
        <mxCell id="dxV5G8bnFSJIvy8jJrCQ-46" value="" style="sketch=0;pointerEvents=1;shadow=0;dashed=0;html=1;strokeColor=none;fillColor=#505050;labelPosition=center;verticalLabelPosition=bottom;verticalAlign=top;outlineConnect=0;align=center;shape=mxgraph.office.devices.video_camera;" parent="1" vertex="1">
          <mxGeometry x="210" y="270" width="21" height="10" as="geometry" />
        </mxCell>
        <mxCell id="dxV5G8bnFSJIvy8jJrCQ-47" value="摄像头&lt;br&gt;1" style="text;html=1;align=center;verticalAlign=middle;resizable=0;points=[];autosize=1;strokeColor=none;fillColor=none;" parent="1" vertex="1">
          <mxGeometry x="61" y="270" width="50" height="30" as="geometry" />
        </mxCell>
        <mxCell id="dxV5G8bnFSJIvy8jJrCQ-48" value="摄像头&lt;br&gt;2" style="text;html=1;align=center;verticalAlign=middle;resizable=0;points=[];autosize=1;strokeColor=none;fillColor=none;" parent="1" vertex="1">
          <mxGeometry x="100" y="280" width="50" height="30" as="geometry" />
        </mxCell>
        <mxCell id="dxV5G8bnFSJIvy8jJrCQ-49" value="摄像头&lt;br&gt;6" style="text;html=1;align=center;verticalAlign=middle;resizable=0;points=[];autosize=1;strokeColor=none;fillColor=none;" parent="1" vertex="1">
          <mxGeometry x="205" y="280" width="50" height="30" as="geometry" />
        </mxCell>
        <mxCell id="UuF3qGw2lz_A0PtlyDSY-1" value="" style="shape=cylinder3;whiteSpace=wrap;html=1;boundedLbl=1;backgroundOutline=1;size=48.9200607672401;rotation=-99;fillColor=#e51400;fontColor=#ffffff;strokeColor=#B20000;" parent="1" vertex="1">
          <mxGeometry x="610.63" y="50" width="120.35" height="200" as="geometry" />
        </mxCell>
        <mxCell id="UuF3qGw2lz_A0PtlyDSY-9" value="" style="ellipse;whiteSpace=wrap;html=1;rotation=90;" parent="1" vertex="1">
          <mxGeometry x="560" y="106.97000000000003" width="120" height="100" as="geometry" />
        </mxCell>
        <mxCell id="UuF3qGw2lz_A0PtlyDSY-10" value="" style="ellipse;whiteSpace=wrap;html=1;aspect=fixed;" parent="1" vertex="1">
          <mxGeometry x="579.65" y="168.97000000000003" width="10" height="10" as="geometry" />
        </mxCell>
        <mxCell id="UuF3qGw2lz_A0PtlyDSY-11" value="" style="ellipse;whiteSpace=wrap;html=1;aspect=fixed;" parent="1" vertex="1">
          <mxGeometry x="582.65" y="119.97000000000003" width="10" height="10" as="geometry" />
        </mxCell>
        <mxCell id="UuF3qGw2lz_A0PtlyDSY-12" value="" style="ellipse;whiteSpace=wrap;html=1;aspect=fixed;" parent="1" vertex="1">
          <mxGeometry x="649.65" y="133.97000000000003" width="10" height="10" as="geometry" />
        </mxCell>
        <mxCell id="UuF3qGw2lz_A0PtlyDSY-13" value="" style="ellipse;whiteSpace=wrap;html=1;aspect=fixed;" parent="1" vertex="1">
          <mxGeometry x="643.65" y="177.97000000000003" width="10" height="10" as="geometry" />
        </mxCell>
        <mxCell id="UuF3qGw2lz_A0PtlyDSY-7" value="" style="shape=process;whiteSpace=wrap;html=1;backgroundOutline=1;rotation=-90;" parent="1" vertex="1">
          <mxGeometry x="592.9" y="146.22000000000003" width="49.5" height="16" as="geometry" />
        </mxCell>
        <mxCell id="UuF3qGw2lz_A0PtlyDSY-14" value="&lt;b&gt;&lt;font style=&quot;font-size: 18px&quot;&gt;RECODER&lt;/font&gt;&lt;/b&gt;" style="text;html=1;align=center;verticalAlign=middle;resizable=0;points=[];autosize=1;strokeColor=none;fillColor=none;rotation=-10;" parent="1" vertex="1">
          <mxGeometry x="659.65" y="113.97000000000003" width="110" height="20" as="geometry" />
        </mxCell>
        <mxCell id="UuF3qGw2lz_A0PtlyDSY-15" value="&lt;font style=&quot;font-size: 15px&quot; color=&quot;#000000&quot;&gt;&lt;b&gt;DO NOT OPEN&lt;/b&gt;&lt;/font&gt;" style="text;html=1;align=center;verticalAlign=middle;resizable=0;points=[];autosize=1;strokeColor=none;fillColor=none;fontSize=18;fontColor=#FFFFFF;rotation=-30;" parent="1" vertex="1">
          <mxGeometry x="653.65" y="158.97000000000003" width="120" height="30" as="geometry" />
        </mxCell>
        <mxCell id="96vdho0zSYJRV0phg4Qu-2" value="&lt;div&gt;&lt;font color=&quot;#cc99ff&quot; style=&quot;font-size: 18px;&quot;&gt;&lt;b style=&quot;&quot;&gt;方案一：&lt;/b&gt;&lt;/font&gt;&lt;/div&gt;&lt;div&gt;&lt;font color=&quot;#cc99ff&quot; style=&quot;font-size: 18px;&quot;&gt;&lt;b&gt;&lt;br&gt;&lt;/b&gt;&lt;/font&gt;&lt;/div&gt;&lt;font color=&quot;#cc99ff&quot; style=&quot;font-size: 15px;&quot;&gt;1、天街商场2楼、3楼拍有趣的短视频。&lt;/font&gt;&lt;div&gt;&lt;font color=&quot;#cc99ff&quot; size=&quot;3&quot;&gt;2、天街2楼书店探秘。&lt;/font&gt;&lt;/div&gt;&lt;div&gt;&lt;font color=&quot;#cc99ff&quot; size=&quot;3&quot;&gt;3、做游戏（在商场里面游逛之后，画出天街的地图）&lt;/font&gt;&lt;/div&gt;&lt;div&gt;&lt;font color=&quot;#cc99ff&quot; size=&quot;3&quot;&gt;4、晚饭（挑选一家喜欢的饭店吃晚饭）&lt;/font&gt;&lt;/div&gt;" style="text;html=1;align=left;verticalAlign=middle;whiteSpace=wrap;rounded=0;" parent="1" vertex="1">
          <mxGeometry x="82" y="400" width="460" height="110" as="geometry" />
        </mxCell>
        <mxCell id="96vdho0zSYJRV0phg4Qu-3" value="&lt;div&gt;&lt;font color=&quot;#9999ff&quot; style=&quot;font-size: 18px;&quot;&gt;&lt;b style=&quot;&quot;&gt;方案二：&lt;/b&gt;&lt;/font&gt;&lt;/div&gt;&lt;div&gt;&lt;font color=&quot;#9999ff&quot; style=&quot;font-size: 18px;&quot;&gt;&lt;b&gt;&lt;br&gt;&lt;/b&gt;&lt;/font&gt;&lt;/div&gt;&lt;font color=&quot;#9999ff&quot; style=&quot;font-size: 15px;&quot;&gt;1、看一场电影。&lt;/font&gt;&lt;div&gt;&lt;span style=&quot;font-size: medium; background-color: initial;&quot;&gt;&lt;font color=&quot;#9999ff&quot;&gt;2、晚饭（挑选一家喜欢的饭店吃晚饭）&lt;/font&gt;&lt;/span&gt;&lt;br&gt;&lt;/div&gt;" style="text;html=1;align=left;verticalAlign=middle;whiteSpace=wrap;rounded=0;" parent="1" vertex="1">
          <mxGeometry x="82" y="520" width="460" height="110" as="geometry" />
        </mxCell>
        <mxCell id="96vdho0zSYJRV0phg4Qu-4" value="&lt;div&gt;&lt;font color=&quot;#b3ff66&quot; style=&quot;font-size: 18px;&quot;&gt;&lt;b style=&quot;&quot;&gt;方案三：&lt;/b&gt;&lt;/font&gt;&lt;/div&gt;&lt;div&gt;&lt;font color=&quot;#b3ff66&quot; style=&quot;font-size: 18px;&quot;&gt;&lt;b&gt;&lt;br&gt;&lt;/b&gt;&lt;/font&gt;&lt;/div&gt;&lt;font color=&quot;#b3ff66&quot; style=&quot;font-size: 15px;&quot;&gt;1、打一场电玩（或者碰碰车）&lt;/font&gt;&lt;div&gt;&lt;span style=&quot;font-size: medium; background-color: initial;&quot;&gt;&lt;font color=&quot;#b3ff66&quot;&gt;2、晚饭（挑选一家喜欢的饭店吃晚饭）&lt;/font&gt;&lt;/span&gt;&lt;br&gt;&lt;/div&gt;" style="text;html=1;align=left;verticalAlign=middle;whiteSpace=wrap;rounded=0;" parent="1" vertex="1">
          <mxGeometry x="82" y="640" width="460" height="110" as="geometry" />
        </mxCell>
        <mxCell id="YN3aHHrb_HTqqe-omOof-2" value="" style="verticalLabelPosition=bottom;html=1;verticalAlign=top;align=center;shape=mxgraph.floorplan.wallCorner;fillColor=strokeColor;direction=north;flipH=1;" vertex="1" parent="1">
          <mxGeometry x="1191" y="245" width="50" height="80" as="geometry" />
        </mxCell>
        <mxCell id="YN3aHHrb_HTqqe-omOof-3" value="" style="verticalLabelPosition=bottom;html=1;verticalAlign=top;align=center;shape=mxgraph.floorplan.wall;fillColor=strokeColor;direction=south;strokeColor=default;strokeWidth=3;" vertex="1" parent="1">
          <mxGeometry x="1180" y="316" width="12" height="100" as="geometry" />
        </mxCell>
      </root>
    </mxGraphModel>
  </diagram>
</mxfile>
